<?xml version="1.0" encoding="UTF-8" standalone="no"?>
<!-- Creator: CorelDRAW 2020 (64-Bit) -->

<svg
   xmlns:dc="http://purl.org/dc/elements/1.1/"
   xmlns:cc="http://creativecommons.org/ns#"
   xmlns:rdf="http://www.w3.org/1999/02/22-rdf-syntax-ns#"
   xmlns:svg="http://www.w3.org/2000/svg"
   xmlns="http://www.w3.org/2000/svg"
   xmlns:sodipodi="http://sodipodi.sourceforge.net/DTD/sodipodi-0.dtd"
   xmlns:inkscape="http://www.inkscape.org/namespaces/inkscape"
   xml:space="preserve"
   width="1.0088614in"
   height="1.0530897in"
   version="1.1"
   style="clip-rule:evenodd;fill-rule:evenodd;image-rendering:optimizeQuality;shape-rendering:geometricPrecision;text-rendering:geometricPrecision"
   viewBox="0 0 1079.1302 1126.4371"
   id="svg16"
   sodipodi:docname="editimage15961632827768.svg"
   inkscape:version="0.92.2 (5c3e80d, 2017-08-06)"><metadata
     id="metadata20"><rdf:RDF><cc:Work
         rdf:about=""><dc:format>image/svg+xml</dc:format><dc:type
           rdf:resource="http://purl.org/dc/dcmitype/StillImage" /></cc:Work></rdf:RDF></metadata><sodipodi:namedview
     pagecolor="#ffffff"
     bordercolor="#666666"
     borderopacity="1"
     objecttolerance="10"
     gridtolerance="10"
     guidetolerance="10"
     inkscape:pageopacity="0"
     inkscape:pageshadow="2"
     inkscape:window-width="896"
     inkscape:window-height="770"
     id="namedview18"
     showgrid="false"
     inkscape:zoom="1.4738298"
     inkscape:cx="169.35367"
     inkscape:cy="146.58569"
     inkscape:window-x="0"
     inkscape:window-y="0"
     inkscape:window-maximized="0"
     inkscape:current-layer="svg16" /><defs
     id="defs4"><style
       type="text/css"
       id="style2"><![CDATA[
    .fil1 {fill:#0079FF;fill-rule:nonzero}
    .fil3 {fill:#15A2B7;fill-rule:nonzero}
    .fil0 {fill:#343A3F;fill-rule:nonzero}
    .fil2 {fill:#6C757E;fill-rule:nonzero}
   ]]></style></defs><g
     id="Layer_x0020_1"
     transform="matrix(0.32985388,0,0,0.31567682,0,-0.0030773)"><metadata
       id="CorelCorpID_0Corel-Layer" /><polygon
       class="fil0"
       points="1927.44,291.72 1635.72,583.43 1344,291.72 1635.72,0 "
       id="polygon7"
       style="fill:#343a3f;fill-rule:nonzero" /><polygon
       class="fil1"
       points="3271.41,2335.89 2787.32,2335.89 2787.39,1932.68 2918.54,1932.68 2918.54,2200.13 3271.51,2200.13 3271.54,1579.82 2434.36,1579.82 2434.36,2334 2341.1,2334 2341.14,2332.48 2305.41,2332.51 2305.41,1579.72 1952.54,1579.65 1952.54,3568.33 2305.41,3568.33 2305.41,2687.84 3271.41,2687.84 "
       id="polygon9"
       style="fill:#0079ff;fill-rule:nonzero" /><path
       class="fil2"
       d="M 866.86,1450.25 H 3271.44 V 343.21 H 2434.4 V 613.2 H 837.01 V 343.21 H 484.15 V 2334.3 H 352.86 V 343.21 H 0 V 2687.16 H 837.01 V 1450.25 h 29.84 z M 2787.26,966.06 V 696.07 h 131.32 v 401.32 H 837.01 V 966.06 h 1950.24 z"
       id="path11"
       inkscape:connector-curvature="0"
       style="fill:#6c757e;fill-rule:nonzero" /><path
       class="fil3"
       d="m 968.37,3565.63 h 837.01 V 1579.76 H 968.37 v 1107.51 h 484.15 v 525.5 H 1321.23 V 2818.6 H 968.37 v 747.04 z m 352.86,-1250.78 v -382.23 h 131.29 v 412.08 h -131.29 v -29.84 z"
       id="path13"
       inkscape:connector-curvature="0"
       style="fill:#15a2b7;fill-rule:nonzero" /></g></svg>