<?xml version="1.0" encoding="UTF-8"?>
<!DOCTYPE svg PUBLIC "-//W3C//DTD SVG 1.1//EN" "http://www.w3.org/Graphics/SVG/1.1/DTD/svg11.dtd">
<!-- Creator: CorelDRAW 2020 (64-Bit) -->
<svg xmlns="http://www.w3.org/2000/svg" xml:space="preserve" width="3.05851in" height="3.33598in" version="1.1" style="shape-rendering:geometricPrecision; text-rendering:geometricPrecision; image-rendering:optimizeQuality; fill-rule:evenodd; clip-rule:evenodd"
viewBox="0 0 3271.54 3568.33"
 xmlns:xlink="http://www.w3.org/1999/xlink"
 xmlns:xodm="http://www.corel.com/coreldraw/odm/2003">
 <defs>
  <style type="text/css">
   <![CDATA[
    .fil1 {fill:#0079FF;fill-rule:nonzero}
    .fil3 {fill:#15A2B7;fill-rule:nonzero}
    .fil0 {fill:#343A3F;fill-rule:nonzero}
    .fil2 {fill:#6C757E;fill-rule:nonzero}
   ]]>
  </style>
 </defs>
 <g id="Layer_x0020_1">
  <metadata id="CorelCorpID_0Corel-Layer"/>
  <polygon class="fil0" points="1635.72,583.43 1344,291.72 1635.72,0 1927.44,291.72 "/>
  <polygon class="fil1" points="2305.41,3568.33 2305.41,2687.84 3271.41,2687.84 3271.41,2335.89 2787.32,2335.89 2787.39,1932.68 2918.54,1932.68 2918.54,2200.13 3271.51,2200.13 3271.54,1579.82 2434.36,1579.82 2434.36,2334 2341.1,2334 2341.14,2332.48 2305.41,2332.51 2305.41,1579.72 1952.54,1579.65 1952.54,3568.33 "/>
  <path class="fil2" d="M866.86 1450.25l2404.58 0 0 -1107.04 -837.04 0 0 269.99 -1597.39 0 0 -269.99 -352.86 0 0 1991.09 -131.29 0 0 -1991.09 -352.86 0 0 2343.95 837.01 0 0 -1236.91 29.84 0zm1920.4 -484.19l0 -269.99 131.32 0 0 401.32 -2081.57 0 0 -131.33 1950.24 0z"/>
  <path class="fil3" d="M968.37 3565.63l837.01 0 0 -1985.87 -837.01 0 0 1107.51 484.15 0 0 525.5 -131.29 0 0 -394.17 -352.86 0 0 747.04zm352.86 -1250.78l0 -382.23 131.29 0 0 412.08 -131.29 0 0 -29.84z"/>
 </g>
</svg>
